<?xml version="1.0" standalone="no"?><!DOCTYPE svg PUBLIC "-//W3C//DTD SVG 1.1//EN" "http://www.w3.org/Graphics/SVG/1.1/DTD/svg11.dtd"><svg t="1508815108400" class="icon" style="" viewBox="0 0 1024 1024" version="1.1" xmlns="http://www.w3.org/2000/svg" p-id="5510" xmlns:xlink="http://www.w3.org/1999/xlink" width="64" height="64"><defs><style type="text/css"></style></defs><path d="M684.087868 732.8535676666667L327.601758 732.8535676666667c-69.051679 0-125.228119-56.17644-125.228119-125.229143L202.373639 431.7272996666667c0-69.045539 56.17644-125.217886 125.228119-125.217886l324.994885 0c11.193947 0 20.270672 9.074679 20.270672 20.268626 0 11.192923-9.075703 20.267603-20.270672 20.267603L327.601758 347.0456416666667c-46.701648 0-84.692914 37.986149-84.692914 84.681658L242.908844 607.6244256666666c0 46.701648 37.991266 84.692914 84.692914 84.692914l356.48611 0c46.700625 0 84.691891-37.991266 84.691891-84.692914 0 0.010233-0.116657-212.230636-0.116657-292.108894 0-39.624463 11.136641-70.139453 33.110095-90.704838 29.691229-27.783787 67.900459-25.602098 69.52547-25.483394 11.171434 0.741897 19.624966 10.396791 18.883069 21.565155-0.73985 11.172457-10.32516 19.609617-21.560038 18.882046-0.066515 0-22.853497-0.890276-39.47813 14.94334-13.238512 12.613272-19.946284 33.06814-19.946284 60.798714 0 79.867002 0.11768 292.098661 0.11768 292.098661C809.314964 676.6771276666666 753.139547 732.8535676666667 684.087868 732.8535676666667z" fill="#8a8a8a" p-id="5511"></path><path d="M653.032572 475.2822816666667L359.288434 475.2822816666667c-11.192923 0-20.267603-9.074679-20.267603-20.266579 0-11.193947 9.074679-20.268626 20.267603-20.268626l293.744137 0c11.192923 0 20.267603 9.074679 20.267603 20.268626C673.300174 466.2076016666667 664.226518 475.2822816666667 653.032572 475.2822816666667z" fill="#8a8a8a" p-id="5512"></path><path d="M653.032572 603.5977156666667L359.288434 603.5977156666667c-11.192923 0-20.267603-9.075703-20.267603-20.267603 0-11.193947 9.074679-20.268626 20.267603-20.268626l293.744137 0c11.192923 0 20.267603 9.073656 20.267603 20.268626C673.300174 594.5209896666667 664.226518 603.5977156666667 653.032572 603.5977156666667z" fill="#8a8a8a" p-id="5513"></path><path d="M788.295232 800.9597116666666m-40.535205 0a39.612 39.612 0 1 0 81.07041 0 39.612 39.612 0 1 0-81.07041 0Z" fill="#8a8a8a" p-id="5514"></path><path d="M232.437351 800.9597116666666m-40.535205 0a39.612 39.612 0 1 0 81.07041 0 39.612 39.612 0 1 0-81.07041 0Z" fill="#8a8a8a" p-id="5515"></path></svg>