<?xml version="1.0" standalone="no"?><!DOCTYPE svg PUBLIC "-//W3C//DTD SVG 1.1//EN" "http://www.w3.org/Graphics/SVG/1.1/DTD/svg11.dtd"><svg t="1509096195344" class="icon" style="" viewBox="0 0 1025 1024" version="1.1" xmlns="http://www.w3.org/2000/svg" p-id="5257" xmlns:xlink="http://www.w3.org/1999/xlink" width="200.1953125" height="200"><defs><style type="text/css"></style></defs><path d="M512 1024C229.248 1024 0 794.752 0 512 0 229.226667 229.248 0 512 0 794.773333 0 1024.021333 229.226667 1024.021333 512 1024.021333 794.752 794.773333 1024 512 1024ZM723.2 361.152C739.882667 344.490667 739.882667 317.482667 723.2 300.821333 706.538667 284.138667 679.530667 284.138667 662.869333 300.821333L512.021333 451.669333 361.173333 300.821333C344.512 284.138667 317.504 284.138667 300.842667 300.821333 284.16 317.482667 284.16 344.490667 300.842667 361.152L451.690667 512 300.842667 662.848C284.16 679.509333 284.16 706.517333 300.842667 723.178667 317.504 739.861333 344.512 739.861333 361.173333 723.178667L512.021333 572.330667 662.869333 723.178667C679.530667 739.861333 706.538667 739.861333 723.2 723.178667 739.882667 706.517333 739.882667 679.509333 723.2 662.848L572.352 512 723.2 361.152Z" p-id="5258" fill="#48414A"></path></svg>