<?xml version="1.0" standalone="no"?><!DOCTYPE svg PUBLIC "-//W3C//DTD SVG 1.1//EN" "http://www.w3.org/Graphics/SVG/1.1/DTD/svg11.dtd"><svg t="1509094333415" class="icon" style="" viewBox="0 0 1024 1024" version="1.1" xmlns="http://www.w3.org/2000/svg" p-id="3667" xmlns:xlink="http://www.w3.org/1999/xlink" width="200" height="200"><defs><style type="text/css"></style></defs><path d="M565.096 568.889c0 30.34-26.548 53.096-53.096 56.889h7.585-11.378 7.586c-26.549-3.793-53.097-26.548-53.097-56.89L451.32 284.445c0-30.34 22.755-56.888 53.096-56.888h26.548c30.34 0 56.889 26.548 53.096 56.888L565.096 568.89zM512 796.444c-30.34 0-56.889-26.548-56.889-56.888s26.548-56.89 56.889-56.89 56.889 26.549 56.889 56.89S542.34 796.444 512 796.444zM512 0C227.556 0 0 227.556 0 512s227.556 512 512 512 512-227.556 512-512S796.444 0 512 0z" fill="#EA8600" p-id="3668"></path></svg>