<?xml version="1.0" standalone="no"?><!DOCTYPE svg PUBLIC "-//W3C//DTD SVG 1.1//EN" "http://www.w3.org/Graphics/SVG/1.1/DTD/svg11.dtd"><svg t="1514427513680" class="icon" style="" viewBox="0 0 1024 1024" version="1.1" xmlns="http://www.w3.org/2000/svg" p-id="5847" xmlns:xlink="http://www.w3.org/1999/xlink" width="200" height="200"><defs><style type="text/css"></style></defs><path d="M512 0C230.4 0 0 230.4 0 512S230.4 1024 512 1024 1024 793.6 1024 512 793.6 0 512 0z m230.4 678.446545c19.176727 19.176727 19.176727 44.683636 0 63.953455-19.176727 19.176727-44.776727 19.176727-63.953455 0L512 576.046545 345.553455 742.306909c-19.176727 19.176727-44.683636 19.176727-63.953455 0-19.176727-19.176727-19.176727-44.776727 0-63.953454L448.046545 512 281.506909 345.553455c-19.176727-19.176727-19.176727-44.683636 0-63.953455 19.176727-19.176727 44.776727-19.176727 63.953455 0L512 448.046545l166.446545-166.446545c19.176727-19.176727 44.683636-19.176727 63.953455 0 19.176727 19.176727 19.176727 44.776727 0 63.953455L576.046545 512l166.353455 166.446545z" fill="#D0011B" p-id="5848"></path></svg>