<?xml version="1.0" standalone="no"?><!DOCTYPE svg PUBLIC "-//W3C//DTD SVG 1.1//EN" "http://www.w3.org/Graphics/SVG/1.1/DTD/svg11.dtd"><svg t="1503901486049" class="icon" style="" viewBox="0 0 1024 1024" version="1.1" xmlns="http://www.w3.org/2000/svg" p-id="8478" xmlns:xlink="http://www.w3.org/1999/xlink" width="200" height="200"><defs><style type="text/css"></style></defs><path d="M799.488 900.448H159.936c-52.928 0-96-43.072-96-96V225.952c0-52.928 43.072-96 96-96h642.496c52.928 0 96 43.072 96 96V320c0 17.664-14.304 32-32 32s-32-14.336-32-32v-94.048c0-17.632-14.336-32-32-32H159.936c-17.632 0-32 14.368-32 32v578.496c0 17.664 14.368 32 32 32h639.552c17.664 0 32-14.336 32-32v-98.944c0-17.696 14.304-32 32-32s32 14.304 32 32v98.944c0 52.928-43.04 96-96 96zM630.144 514.112a31.328 31.328 0 1 0 62.656 0 31.328 31.328 0 1 0-62.656 0zM896 640H576c-35.296 0-64-28.704-64-64V448c0-35.296 28.704-64 64-64h320c35.296 0 64 28.704 64 64v128c0 35.296-28.704 64-64 64zM576 448v128h320.064L896 448H576z"  p-id="8479"></path></svg>
