<?xml version="1.0" standalone="no"?><!DOCTYPE svg PUBLIC "-//W3C//DTD SVG 1.1//EN" "http://www.w3.org/Graphics/SVG/1.1/DTD/svg11.dtd"><svg t="1508816022217" class="icon" style="" viewBox="0 0 1092 1024" version="1.1" xmlns="http://www.w3.org/2000/svg" p-id="2020" xmlns:xlink="http://www.w3.org/1999/xlink" width="68.25" height="64"><defs><style type="text/css"></style></defs><path d="M987.493303 617.708175a1513.836941 1513.836941 0 0 1-136.283715 166.995538c-47.987223 51.186372-97.893936 101.093084-148.440477 147.160818-30.711823 27.512675-54.38552 48.627053-69.101602 60.143987a136.923544 136.923544 0 0 1-174.033664 0c-14.076252-12.156763-38.389779-32.631312-69.101601-60.783817-50.546542-46.067734-101.093084-95.334617-149.080308-147.160818a1535.591149 1535.591149 0 0 1-136.283714-165.715878A493.308657 493.308657 0 0 1 0.23616 344.500917 330.791927 330.791927 0 0 1 98.769925 96.247014a336.550393 336.550393 0 0 1 447.880752-20.474548 335.910564 335.910564 0 0 1 447.880752 20.474548 330.791927 330.791927 0 0 1 97.893936 246.974243 492.028997 492.028997 0 0 1-104.932062 274.486918z" p-id="2021" fill="#6e1004"></path></svg>