<?xml version="1.0" standalone="no"?><!DOCTYPE svg PUBLIC "-//W3C//DTD SVG 1.1//EN" "http://www.w3.org/Graphics/SVG/1.1/DTD/svg11.dtd"><svg t="1503735220905" class="icon" style="" viewBox="0 0 1024 1024" version="1.1" xmlns="http://www.w3.org/2000/svg" p-id="9875" xmlns:xlink="http://www.w3.org/1999/xlink" width="200" height="200"><defs><style type="text/css"></style></defs><path d="M556.571636 66.24782l-89.143273 0L66.257541 489.701135c0 0 0.787946 89.149413 44.577265 89.149413l66.859757 0 0 289.753243c0 87.320765 89.148389 89.149413 89.148389 89.149413l178.295755 0L445.138708 645.710304c0-22.326495 22.288632-22.284539 22.288632-22.284539l89.147366 0c0 0 22.288632 0.73985 22.288632 22.284539l0 312.042899 178.295755 0c91.541903 0 89.148389-89.149413 89.148389-89.149413L846.307484 556.560892l66.86078 0c43.181475 0 44.572148-66.855664 44.572148-66.855664L556.571636 66.24782 556.571636 66.24782zM556.571636 66.24782" p-id="9876"></path></svg>
