<?xml version="1.0" standalone="no"?><!DOCTYPE svg PUBLIC "-//W3C//DTD SVG 1.1//EN" "http://www.w3.org/Graphics/SVG/1.1/DTD/svg11.dtd"><svg t="1503735025510" class="icon" style="" viewBox="0 0 1024 1024" version="1.1" xmlns="http://www.w3.org/2000/svg" p-id="4288" xmlns:xlink="http://www.w3.org/1999/xlink" width="200" height="200"><defs><style type="text/css"></style></defs><path d="M960.915219 383.344828c-47.394427-0.921999-93.15668-25.91216-118.586862-69.958328-25.41074-44.011376-24.193005-96.090499-1.346671-137.580448C787.650037 123.43017 721.262024 84.305081 647.149073 63.761186c-24.495904 40.58637-69.019956 67.724451-119.882368 67.724451s-95.386464-27.13808-119.882368-67.724451c-74.112951 20.544919-140.499941 59.670008-193.83159 112.044866 22.846334 41.48995 24.064069 93.568049-1.346671 137.580448-25.430182 44.046169-71.192436 69.036329-118.586862 69.958328-9.208732 35.778878-14.107299 73.288167-14.107299 111.941512 0 38.653345 4.897543 76.162634 14.107299 111.941512 47.394427 0.921999 93.15668 25.91216 118.586862 69.958328 25.409716 44.011376 24.193005 96.090499 1.346671 137.580448 53.331649 52.374858 119.718639 91.499947 193.83159 112.044866 24.495904-40.58637 69.019956-67.724451 119.882368-67.724451 50.862411 0 95.386464 27.13808 119.882368 67.724451 74.112951-20.544919 140.499941-59.670008 193.83159-112.044866-22.846334-41.48995-24.064069-93.568049 1.346671-137.580448 25.431206-44.046169 71.192436-69.035306 118.587885-69.958328 9.208732-35.778878 14.107299-73.288167 14.107299-111.941512C975.022519 456.632995 970.124975 419.123706 960.915219 383.344828zM527.266705 610.163717c-63.444984 0-114.877377-51.432393-114.877377-114.877377s51.432393-114.877377 114.877377-114.877377 114.877377 51.432393 114.877377 114.877377S590.711689 610.163717 527.266705 610.163717z" p-id="4289" fill="#ffffff"></path></svg>