<?xml version="1.0" standalone="no"?><!DOCTYPE svg PUBLIC "-//W3C//DTD SVG 1.1//EN" "http://www.w3.org/Graphics/SVG/1.1/DTD/svg11.dtd"><svg t="1516347576621" class="icon" style="" viewBox="0 0 1109 1024" version="1.1" xmlns="http://www.w3.org/2000/svg" p-id="5827" xmlns:xlink="http://www.w3.org/1999/xlink" width="216.6015625" height="200"><defs><style type="text/css"></style></defs><path d="M1012.920653 469.559212c-15.33242 43.736848-43.523601 85.298581-85.298581 85.298581L315.306206 554.857794 330.532002 640.156375c3.326645 23.563733-2.239088 42.649291 21.324645 42.649291l618.414714 0 0 63.973936L330.532002 746.779601c-35.334937 0-57.960386-27.95661-63.973936-63.973936L163.496056 64.390951 10.662323 64.390951 10.662323 0.417015c0 0 131.317166-0.938284 170.597163 0 17.12369 0.405168 29.172115 24.203472 36.017326 42.649291L223.908776 43.066306l15.225797 85.298581L1012.920653 128.364887c59.090592 0 86.620709 24.864536 85.298581 85.298581L1012.920653 469.559212zM991.596007 192.338823 351.856648 192.338823l-85.298581 0-15.993484 0 53.311613 298.545034L309.207357 490.883858l42.649291 0 533.116133 0c36.550442 0 51.904187 10.534375 63.973936-21.324645l85.298581-234.571098C1042.114092 190.291657 1021.983627 192.338823 991.596007 192.338823zM426.492906 789.428892c64.784272 0 117.285549 52.501277 117.285549 117.285549S491.277179 1023.999991 426.492906 1023.999991 309.207357 971.498714 309.207357 906.714441 361.708634 789.428892 426.492906 789.428892zM426.492906 960.026055c29.449335 0 53.311613-23.862278 53.311613-53.311613S455.942242 853.402828 426.492906 853.402828 373.181293 877.265106 373.181293 906.714441 397.043571 960.026055 426.492906 960.026055zM874.310458 789.428892c64.784272 0 117.285549 52.501277 117.285549 117.285549S939.09473 1023.999991 874.310458 1023.999991 757.024909 971.498714 757.024909 906.714441 809.526186 789.428892 874.310458 789.428892zM874.310458 960.026055c29.449335 0 53.311613-23.862278 53.311613-53.311613S903.759793 853.402828 874.310458 853.402828 820.998845 877.265106 820.998845 906.714441 844.861123 960.026055 874.310458 960.026055z" p-id="5828"></path></svg>
