<?xml version="1.0" standalone="no"?><!DOCTYPE svg PUBLIC "-//W3C//DTD SVG 1.1//EN" "http://www.w3.org/Graphics/SVG/1.1/DTD/svg11.dtd"><svg t="1508828476668" class="icon" style="" viewBox="0 0 1024 1024" version="1.1" xmlns="http://www.w3.org/2000/svg" p-id="5206" xmlns:xlink="http://www.w3.org/1999/xlink" width="200" height="200"><defs><style type="text/css"></style></defs><path d="M512 512m-499 0a499 499 0 1 0 998 0 499 499 0 1 0-998 0Z" fill="#f35d5d" p-id="5207"></path><path d="M475.4 796.7c-171.1 0-309.9-90.9-309.9-203.1 0-112.1 207.8-289.2 287.3-289.2 33.3 0 98.7 25.2 53 105.2-3.2 5.6 103.2-46.5 161.4-12.2 58.2 34.2 0 89.3 0 95.4 0 6.1 116.8 6.1 116.8 100.9-0.1 112.1-137.5 203-308.6 203z" fill="#fff" p-id="5208"></path><path d="M718.9 381.5c-19.3-23.2-58.9-17.8-58.9-17.8-8.3 0.2-14.7-5.8-14.7-13.8v-5.7c0-8 6.4-15.5 14.3-16.7 0 0 47.2-12 83.3 21 36.1 33 20.6 93.3 20.6 93.3-1.3 8.1-9.1 14.4-17.1 14.4h-13.1c-7.9 0-12.6-6.2-10.3-13.8 0.1-0.1 15.1-37.7-4.1-60.9z" fill="#fff" p-id="5209"></path><path d="M855.2 460.2c-1.3 12-12.5 21.6-24.5 21.6h-9.3c-12.1 0-20.4-9.6-18.6-21.5 0 0 17.2-72.7-22.6-130.6-39.7-57.9-133-48-133-48-12.3 0.2-22-9-22-21V250c0-12.1 9.7-22 21.6-22.2 0 0 97.2-8.9 163.4 54.7 66.4 63.5 45 177.7 45 177.7z" fill="#fff" p-id="5210"></path><path d="M447 473.1c-109.3 15.4-189.7 86.3-179.6 158.5 10.1 72.2 107 118.2 216.3 102.9 109.4-15.4 189.8-86.3 179.6-158.5-10.1-72.2-107-118.3-216.3-102.9z" fill="#f35d5d" p-id="5211"></path><path d="M463.5 714.8c-65 12.6-126.4-21.7-137.1-76.8-10.7-55 33.3-109.9 98.4-122.5 65-12.6 126.4 21.7 137.1 76.8 10.7 55-33.3 109.9-98.4 122.5z" fill="#fff" p-id="5212"></path><path d="M393.7 605.1c-20 9.3-30.5 29.3-23.4 44.5 7.1 15.2 29.1 20 49.1 10.7s30.5-29.3 23.4-44.5c-7.1-15.3-29.1-20.1-49.1-10.7zM465.4 573.3c-11 0-20 9.1-20 20.3 0 11.2 8.9 20.3 20 20.3 11 0 20-9.1 20-20.3 0-11.2-9-20.3-20-20.3z" fill="#f35d5d" p-id="5213"></path></svg>