<?xml version="1.0" standalone="no"?><!DOCTYPE svg PUBLIC "-//W3C//DTD SVG 1.1//EN" "http://www.w3.org/Graphics/SVG/1.1/DTD/svg11.dtd"><svg t="1504165242552" class="icon" style="" viewBox="0 0 1024 1024" version="1.1" xmlns="http://www.w3.org/2000/svg" p-id="3024" xmlns:xlink="http://www.w3.org/1999/xlink" width="200" height="200"><defs><style type="text/css"></style></defs><path d="M669.925822 956.303178c-52.900837-8.5487-115.502617-54.826699-158.701488-92.151793-57.854663-49.977251-118.222565-115.938546-169.989579-185.729051l-0.185219-0.25685-16.354479-22.664186c-49.936319-71.109548-93.519953-149.183717-122.735346-219.83687-21.812795-52.756551-46.022173-126.748752-37.472449-179.64959 9.148357-56.609299 59.33948-110.152772 80.494289-130.545218 16.505929-15.913435 73.502038-67.333548 113.816208-60.818158 16.555048 2.674922 32.632211 16.391319 52.134381 44.476981 17.250896 24.833595 32.821523 54.754045 42.842761 75.482135 13.462616 27.828812 25.417903 56.619532 33.670867 81.07655 13.362332 39.59581 13.060457 55.600319 11.67183 64.195068-2.802836 17.34504-14.294564 30.925337-34.149774 40.362266-13.074783 6.212492-28.180829 10.038634-42.790572 13.740956-9.853415 2.494821-25.586748 6.475482-31.918967 10.04375 0.6191 8.603959 5.937223 30.003338 23.569812 67.677379 16.430204 35.103496 38.745443 73.875544 59.733452 103.783715 21.770839 29.336142 51.534723 62.729693 79.685877 89.382726 30.194696 28.590152 48.827055 40.382733 56.803727 43.680848 5.374404-4.886287 14.113439-18.560728 19.584034-27.127847 8.111748-12.7023 16.501836-25.835412 26.521027-36.288484 15.210423-15.872502 31.719422-22.496363 49.064462-19.692505 8.594749 1.388627 23.877827 6.14393 57.256029 31.29475 20.608364 15.533788 44.173059 35.94977 66.341964 57.492413 16.514115 16.044418 40.007179 40.246633 58.148351 64.437591 20.50808 27.357068 28.462239 46.933939 25.787317 63.49001-6.515391 40.314171-73.265654 78.213339-93.568049 88.868003-26.0237 13.652951-92.651167 44.423769-149.260466 35.275411M380.721071 649.332808" p-id="3025"></path></svg>