<?xml version="1.0" standalone="no"?><!DOCTYPE svg PUBLIC "-//W3C//DTD SVG 1.1//EN" "http://www.w3.org/Graphics/SVG/1.1/DTD/svg11.dtd"><svg t="1503999515725" class="icon" style="" viewBox="0 0 1024 1024" version="1.1" xmlns="http://www.w3.org/2000/svg" p-id="1012" xmlns:xlink="http://www.w3.org/1999/xlink" width="200" height="200"><defs><style type="text/css"></style></defs><path d="M532.8 950.4l-116.8 0c-36.8 0-65.6-28.8-65.6-64L350.4 496l25.6 0 0 390.4c0 20.8 17.6 38.4 40 38.4l116.8 0L532.8 950.4z" p-id="1013" fill="#000000"></path><path d="M468.8 172.8l-9.6 208L452.8 384c-3.2 1.6-76.8 32-76.8 115.2l-25.6 0c0-1.6 0-1.6 0-3.2 0-40 17.6-76.8 46.4-104 14.4-14.4 30.4-22.4 38.4-27.2l8-190.4" p-id="1014" fill="#000000"></path><path d="M616 950.4l-116.8 0 0-25.6 116.8 0c20.8 0 40-17.6 40-38.4L656 496l25.6 0 0 390.4C681.6 921.6 652.8 950.4 616 950.4z" p-id="1015" fill="#000000"></path><path d="M587.2 172.8l8 190.4c8 4.8 24 12.8 38.4 27.2 30.4 27.2 46.4 64 46.4 104 0 1.6 0 1.6 0 3.2L656 497.6c0-84.8-76.8-115.2-76.8-115.2l-8-3.2-9.6-208" p-id="1016" fill="#000000"></path><path d="M601.6 121.6C596.8 104 587.2 80 569.6 80l-110.4 0c-17.6 0-27.2 22.4-30.4 40-3.2 17.6-6.4 52.8-6.4 52.8l182.4 0C606.4 172.8 604.8 139.2 601.6 121.6zM451.2 147.2c0-8 1.6-16 3.2-22.4 1.6-9.6 6.4-17.6 8-19.2l105.6 0 0 0c1.6 3.2 6.4 9.6 8 19.2 1.6 6.4 1.6 12.8 3.2 20.8L451.2 145.6z" p-id="1017" fill="#000000"></path><path d="M443.2 172.8 468.8 172.8 561.6 172.8 587.2 172.8Z" p-id="1018" fill="#000000"></path></svg>