<?xml version="1.0" standalone="no"?><!DOCTYPE svg PUBLIC "-//W3C//DTD SVG 1.1//EN" "http://www.w3.org/Graphics/SVG/1.1/DTD/svg11.dtd"><svg t="1514427369006" class="icon" style="" viewBox="0 0 1024 1024" version="1.1" xmlns="http://www.w3.org/2000/svg" p-id="4077" xmlns:xlink="http://www.w3.org/1999/xlink" width="200" height="200"><defs><style type="text/css"></style></defs><path d="M512 512m-512 0a512 512 0 1 0 1024 0 512 512 0 1 0-1024 0Z" fill="#F38585" p-id="4078"></path><path d="M512 658.285714c14.628571 0 24.380952-9.752381 24.380952-24.380952l19.504762-365.714286c0-29.257143-19.504762-48.761905-43.885714-48.761905-29.257143 0-48.761905 19.504762-43.885714 48.761905L487.619048 633.904762c0 14.628571 9.752381 24.380952 24.380952 24.380952z" fill="#FFFFFF" p-id="4079"></path><path d="M512 755.809524m-48.761905 0a48.761905 48.761905 0 1 0 97.52381 0 48.761905 48.761905 0 1 0-97.52381 0Z" fill="#FFFFFF" p-id="4080"></path></svg>