<?xml version="1.0" standalone="no"?><!DOCTYPE svg PUBLIC "-//W3C//DTD SVG 1.1//EN" "http://www.w3.org/Graphics/SVG/1.1/DTD/svg11.dtd"><svg t="1514427342498" class="icon" style="" viewBox="0 0 1050 1024" version="1.1" xmlns="http://www.w3.org/2000/svg" p-id="3963" xmlns:xlink="http://www.w3.org/1999/xlink" width="205.078125" height="200"><defs><style type="text/css"></style></defs><path d="M971.487179 256c-45.948718-78.769231-105.025641-137.846154-183.794871-183.794872s-164.102564-65.641026-256-65.641025-177.230769 19.692308-256 65.641025-137.846154 105.025641-183.794872 183.794872-65.641026 164.102564-65.641026 256 19.692308 177.230769 65.641026 256 105.025641 137.846154 183.794872 183.794872 164.102564 65.641026 256 65.641025 177.230769-19.692308 256-65.641025 137.846154-105.025641 183.794871-183.794872 65.641026-164.102564 65.641026-256-19.692308-177.230769-65.641026-256z m-446.358974 656.410256c-32.820513 0-59.076923-26.25641-59.076923-59.076923s26.25641-59.076923 59.076923-59.076923 59.076923 26.25641 59.076923 59.076923-26.25641 59.076923-59.076923 59.076923z m72.205128-728.615384l-13.128205 466.051282c0 32.820513-26.25641 59.076923-59.076923 59.076923s-59.076923-26.25641-59.076923-59.076923l-13.128205-466.051282v-6.564103c0-39.384615 32.820513-72.205128 72.205128-72.205128s72.205128 39.384615 72.205128 78.769231z" fill="#FFD000" p-id="3964"></path></svg>