<?xml version="1.0" standalone="no"?><!DOCTYPE svg PUBLIC "-//W3C//DTD SVG 1.1//EN" "http://www.w3.org/Graphics/SVG/1.1/DTD/svg11.dtd"><svg t="1514613531319" class="icon" style="" viewBox="0 0 1024 1024" version="1.1" xmlns="http://www.w3.org/2000/svg" p-id="1004" xmlns:xlink="http://www.w3.org/1999/xlink" width="16" height="16"><defs><style type="text/css"></style></defs><path d="M511.998 64.791c-246.991 0-447.209 200.218-447.209 447.209 0 246.994 200.215 447.211 447.209 447.211 246.994 0 447.212-200.217 447.212-447.211 0-246.991-200.218-447.209-447.212-447.209l0 0zM445.022 305.645c0-36.644 29.648-66.298 66.298-66.298 36.583 0 67.683 29.652 67.683 66.298l0 205.182c0 36.602-31.079 66.297-67.683 66.297-36.65 0-66.298-29.695-66.298-66.297l0-205.182zM513.397 784.653c-40.158 0-75.509-32.533-75.509-72.717 0-40.132 35.35-72.695 75.509-72.695 40.162 0 72.717 32.559 72.717 72.695 0 40.185-32.555 72.717-72.717 72.717z" p-id="1005" fill="#bfbfbf"></path></svg>